IKResults
version=1
nRows=9
nColumns=63
inDegrees=yes

Units are S.I. units (second, meters, Newtons, ...)
If the header above contains a line with 'inDegrees', this indicates whether rotational values are in degrees (yes) or radians (no).

endheader
time	pelvis_tilt	pelvis_list	pelvis_rotation	pelvis_tx	pelvis_ty	pelvis_tz	hip_flexion_r	hip_adduction_r	hip_rotation_r	knee_angle_r	knee_angle_r_beta	ankle_angle_r	subtalar_angle_r	mtp_angle_r	hip_flexion_l	hip_adduction_l	hip_rotation_l	knee_angle_l	knee_angle_l_beta	ankle_angle_l	subtalar_angle_l	mtp_angle_l	L5_S1_Flex_Ext	L5_S1_Lat_Bending	L5_S1_axial_rotation	L4_L5_Flex_Ext	L4_L5_Lat_Bending	L4_L5_axial_rotation	L3_L4_Flex_Ext	L3_L4_Lat_Bending	L3_L4_axial_rotation	L2_L3_Flex_Ext	L2_L3_Lat_Bending	L2_L3_axial_rotation	L1_L2_Flex_Ext	L1_L2_Lat_Bending	L1_L2_axial_rotation	L1_T12_Flex_Ext	L1_T12_Lat_Bending	L1_T12_axial_rotation	Abs_r3	Abs_r2	Abs_r1	Abs_t1	Abs_t2	neck_flexion	neck_bending	neck_rotation	arm_flex_r	arm_add_r	arm_rot_r	elbow_flex_r	pro_sup_r	wrist_flex_r	wrist_dev_r	arm_flex_l	arm_add_l	arm_rot_l	elbow_flex_l	pro_sup_l	wrist_flex_l	wrist_dev_l
      6.03333333	    -85.97720455	    -25.71543497	     -2.67084155	     -0.82725235	      0.49702439	     -0.01268252	    149.87592053	    -13.39957375	      3.48896962	    100.92781198	      1.76152263	     38.82628223	     -6.79945672	      0.00000000	    148.20077183	    -29.17273955	      4.94860859	    103.66602908	      1.80931353	     46.91454461	     -4.50381203	      0.00000000	     11.62992766	      0.74015807	     -0.68006888	     21.59793865	      0.98441023	     -0.72257318	     19.10680815	      1.79962032	     -0.72257318	     13.29184432	      1.79962032	     -0.59506027	     10.79955082	      1.50933033	     -0.55255596	      6.64534066	      1.14650485	     -0.51005166	     83.07141027	      8.37281609	     -3.78233907	      0.00000000	      0.00000000	     10.01050601	     -3.09945339	      5.77148478	    -33.90319114	    -11.68660041	    -13.70473049	    111.98624158	     89.99559364	      0.00000000	      0.00000000	    -31.86834805	    -12.03934888	    -18.32740884	    111.67749443	     89.99559364	      0.00000000	      0.00000000
      6.06666667	    -85.91680212	    -25.67054275	     -2.65191594	     -0.82744185	      0.49690946	     -0.01264719	    149.87679546	    -13.37548441	      3.50165851	    100.93379170	      1.76162699	     38.84237659	     -6.81022529	      0.00000000	    148.21598241	    -29.10949960	      5.05025690	    103.75767790	      1.81091310	     46.94036548	     -4.52121333	      0.00000000	     11.62094343	      0.73718105	     -0.66814252	     21.58125404	      0.98045080	     -0.70990143	     19.09204796	      1.79238201	     -0.70990143	     13.28157624	      1.79238201	     -0.58462471	     10.79120807	      1.50325960	     -0.54286580	      6.64020708	      1.14189345	     -0.50110689	     83.00723682	      8.33913949	     -3.71600826	      0.00000000	      0.00000000	      9.97824288	     -3.10349229	      5.77395556	    -33.84742809	    -11.67027982	    -13.70892296	    112.00443338	     89.99559364	      0.00000000	      0.00000000	    -31.77745451	    -12.08256008	    -18.33972378	    111.69047015	     89.99559364	      0.00000000	      0.00000000
      6.10000000	    -85.86405687	    -25.62115777	     -2.60199249	     -0.82768398	      0.49688301	     -0.01258833	    149.88093645	    -13.30259850	      3.62465138	    100.92322473	      1.76144256	     38.71771046	     -6.79634773	      0.00000000	    148.21603442	    -28.96548805	      5.15661658	    103.81065847	      1.81183779	     46.86430102	     -4.61720750	      0.00000000	     11.61306132	      0.72569270	     -0.64532247	     21.56661617	      0.96517130	     -0.68565512	     19.07909844	      1.76444924	     -0.68565512	     13.27256778	      1.76444924	     -0.56465716	     10.78388874	      1.47983256	     -0.52432451	      6.63570324	      1.12409800	     -0.48399185	     82.95093567	      8.20918101	     -3.58908998	      0.00000000	      0.00000000	      9.94529889	     -3.09161208	      5.75795296	    -33.90542524	    -11.60127534	    -13.72853492	    112.05571764	     89.99559364	      0.00000000	      0.00000000	    -31.63916749	    -12.17649641	    -18.34164376	    111.71107629	     89.99559364	      0.00000000	      0.00000000
      6.13333333	    -85.78657576	    -25.58326107	     -2.58679916	     -0.82780491	      0.49673602	     -0.01259940	    149.87867604	    -13.29520835	      3.60905168	    100.96491261	      1.76217015	     38.75238073	     -6.81646103	      0.00000000	    148.22665029	    -28.94366243	      5.22812088	    103.90549867	      1.81349306	     46.88647151	     -4.65471124	      0.00000000	     11.60247002	      0.72507740	     -0.63569839	     21.54694707	      0.96435294	     -0.67542954	     19.06169799	      1.76295319	     -0.67542954	     13.26046298	      1.76295319	     -0.55623609	     10.77405366	      1.47857783	     -0.51650494	      6.62965137	      1.12314489	     -0.47677379	     82.87528308	      8.20222056	     -3.53556374	      0.00000000	      0.00000000	      9.90955226	     -3.09262515	      5.75525322	    -33.84533622	    -11.60501257	    -13.74505685	    112.05819493	     89.99559364	      0.00000000	      0.00000000	    -31.60989462	    -12.19794901	    -18.34867853	    111.67906059	     89.99559364	      0.00000000	      0.00000000
      6.16666667	    -85.72489859	    -25.56128487	     -2.57022910	     -0.82787333	      0.49661198	     -0.01257095	    149.87837031	    -13.26937212	      3.63339854	    101.00330407	      1.76284021	     38.71929906	     -6.81005750	      0.00000000	    148.24384650	    -28.89028154	      5.31681754	    103.98589064	      1.81489617	     46.88373019	     -4.69467468	      0.00000000	     11.59563249	      0.72372726	     -0.62835679	     21.53424910	      0.96255726	     -0.66762909	     19.05046462	      1.75967046	     -0.66762909	     13.25264837	      1.75967046	     -0.54981219	     10.76770433	      1.47582463	     -0.51053989	      6.62574440	      1.12105353	     -0.47126759	     82.82644331	      8.18694752	     -3.49473194	      0.00000000	      0.00000000	      9.87769689	     -3.09192593	      5.75514890	    -33.83949632	    -11.60237857	    -13.74257398	    112.05522023	     89.99559364	      0.00000000	      0.00000000	    -31.59333347	    -12.23344665	    -18.38297266	    111.63971786	     89.99559364	      0.00000000	      0.00000000
      6.20000000	    -85.68149128	    -25.55926351	     -2.53829599	     -0.82781352	      0.49658798	     -0.01252807	    149.88207822	    -13.22087636	      3.73201286	    101.04352989	      1.76354228	     38.51115009	     -6.75782832	      0.00000000	    148.24504001	    -28.78556443	      5.41253993	    104.02287743	      1.81554171	     46.76858133	     -4.81867966	      0.00000000	     11.59400761	      0.72085942	     -0.62658845	     21.53123153	      0.95874302	     -0.66575023	     19.04779510	      1.75269759	     -0.66575023	     13.25079130	      1.75269759	     -0.54826489	     10.76619547	      1.46997652	     -0.50910311	      6.62481595	      1.11661124	     -0.46994134	     82.81483696	      8.15450589	     -3.48489697	      0.00000000	      0.00000000	      9.82305975	     -3.07747403	      5.74583317	    -33.95043698	    -11.58492462	    -13.70631796	    112.03819166	     89.99559364	      0.00000000	      0.00000000	    -31.62316139	    -12.27086449	    -18.46754578	    111.55107197	     89.99559364	      0.00000000	      0.00000000
      6.23333333	    -85.60849268	    -25.54827535	     -2.53044705	     -0.82784564	      0.49641232	     -0.01250792	    149.87904503	    -13.21702092	      3.71521532	    101.09643739	      1.76446569	     38.51973109	     -6.76405530	      0.00000000	    148.25418902	    -28.77933868	      5.48052715	    104.09300105	      1.81676560	     46.77098868	     -4.86480208	      0.00000000	     11.58427888	      0.72260442	     -0.62221134	     21.51316431	      0.96106387	     -0.66109954	     19.03181177	      1.75694038	     -0.66109954	     13.23967233	      1.75694038	     -0.54443492	     10.75716137	      1.47353492	     -0.50554671	      6.61925695	      1.11931424	     -0.46665850	     82.74534562	      8.17424567	     -3.46055278	      0.00000000	      0.00000000	      9.78332835	     -3.07724052	      5.74399214	    -33.93040788	    -11.60374687	    -13.70239870	    112.00983176	     89.99559364	      0.00000000	      0.00000000	    -31.65437023	    -12.26787555	    -18.49365717	    111.48310596	     89.99559364	      0.00000000	      0.00000000
      6.26666667	    -85.60341645	    -25.58048725	     -2.52278162	     -0.82752332	      0.49635119	     -0.01247248	    149.88101816	    -13.17955988	      3.78251572	    101.15297752	      1.76545251	     38.32492967	     -6.70028209	      0.00000000	    148.27072665	    -28.72560013	      5.56251756	    104.13333535	      1.81746956	     46.69366930	     -4.95505655	      0.00000000	     11.59272212	      0.72419566	     -0.63049055	     21.52884424	      0.96318023	     -0.66989621	     19.04568317	      1.76080934	     -0.66989621	     13.24932211	      1.76080934	     -0.55167923	     10.76500176	      1.47677980	     -0.51227357	      6.62408142	      1.12177908	     -0.47286791	     82.80565481	      8.19224620	     -3.50659930	      0.00000000	      0.00000000	      9.76535675	     -3.07233121	      5.74079958	    -34.05336979	    -11.60951791	    -13.63566127	    111.93929710	     89.99559364	      0.00000000	      0.00000000	    -31.74264284	    -12.29337137	    -18.60167889	    111.36017393	     89.99559364	      0.00000000	      0.00000000
      6.30000000	    -85.64201796	    -25.63090768	     -2.53697952	     -0.82730285	      0.49648309	     -0.01251632	    149.88516288	    -13.21136486	      3.77869946	    101.16879775	      1.76572862	     38.11305054	     -6.65355622	      0.00000000	    148.30311049	    -28.65748621	      5.59240538	    104.08276078	      1.81658687	     46.50594724	     -5.23337245	      0.00000000	     11.60584815	      0.73198892	     -0.65355417	     21.55322060	      0.97354526	     -0.69440131	     19.06724792	      1.77975785	     -0.69440131	     13.26432385	      1.77975785	     -0.57185990	     10.77719059	      1.49267180	     -0.53101277	      6.63158163	      1.13385083	     -0.49016563	     82.89941274	      8.28040501	     -3.63487225	      0.00000000	      0.00000000	      9.62232666	     -3.06797855	      5.72806922	    -34.10395331	    -11.71390522	    -13.47641349	    111.80130923	     89.99559364	      0.00000000	      0.00000000	    -31.94882438	    -12.16188657	    -18.79653047	    111.16471349	     89.99559364	      0.00000000	      0.00000000
